<svg xmlns="http://www.w3.org/2000/svg" viewBox="0 0 247 247" role="img" aria-label="Common Ladder">
  <rect x="0" y="0" width="247" height="247" rx="44" fill="#F8F7F4"/>
  <g transform="translate(-12.00,-16.00)">
  <path fill="#E8911A" fill-opacity="1" fill-rule="evenodd" d="M 254.00,51.00 L 234.00,85.64 L 194.00,85.64 L 174.00,51.00 L 194.00,16.36 L 234.00,16.36 Z M 231.50,51.00 L 222.75,66.16 L 205.25,66.16 L 196.50,51.00 L 205.25,35.84 L 222.75,35.84 Z"/>
  <path fill="#789B99" fill-opacity="1" fill-rule="evenodd" d="M 148.00,118.00 L 128.00,152.64 L 88.00,152.64 L 68.00,118.00 L 88.00,83.36 L 128.00,83.36 Z M 125.50,118.00 L 116.75,133.16 L 99.25,133.16 L 90.50,118.00 L 99.25,102.84 L 116.75,102.84 Z"/>
  <path fill="#789B99" fill-opacity="1" fill-rule="evenodd" d="M 259.00,118.00 L 239.00,152.64 L 199.00,152.64 L 179.00,118.00 L 199.00,83.36 L 239.00,83.36 Z M 236.50,118.00 L 227.75,133.16 L 210.25,133.16 L 201.50,118.00 L 210.25,102.84 L 227.75,102.84 Z"/>
  <path fill="#1C3D6E" fill-opacity="1" fill-rule="evenodd" d="M 207.00,164.00 L 187.00,198.64 L 147.00,198.64 L 127.00,164.00 L 147.00,129.36 L 187.00,129.36 Z M 184.50,164.00 L 175.75,179.16 L 158.25,179.16 L 149.50,164.00 L 158.25,148.84 L 175.75,148.84 Z"/>
  <path fill="#1C3D6E" fill-opacity="1" fill-rule="evenodd" d="M 92.00,164.00 L 72.00,198.64 L 32.00,198.64 L 12.00,164.00 L 32.00,129.36 L 72.00,129.36 Z M 69.50,164.00 L 60.75,179.16 L 43.25,179.16 L 34.50,164.00 L 43.25,148.84 L 60.75,148.84 Z"/>
  <path fill="#1C3D6E" fill-opacity="1" fill-rule="evenodd" d="M 161.00,228.00 L 141.00,262.64 L 101.00,262.64 L 81.00,228.00 L 101.00,193.36 L 141.00,193.36 Z M 138.50,228.00 L 129.75,243.16 L 112.25,243.16 L 103.50,228.00 L 112.25,212.84 L 129.75,212.84 Z"/>
  </g>
</svg>